<?xml version="1.0" standalone="no"?>
<!DOCTYPE svg PUBLIC "-//W3C//DTD SVG 20010904//EN"
 "http://www.w3.org/TR/2001/REC-SVG-20010904/DTD/svg10.dtd">
<svg version="1.0" xmlns="http://www.w3.org/2000/svg"
 width="1218.000000pt" height="249.000000pt" viewBox="0 0 1218.000000 249.000000"
 preserveAspectRatio="xMidYMid meet">
<metadata>
Created by potrace 1.10, written by Peter Selinger 2001-2011
</metadata>
<g transform="translate(0.000000,249.000000) scale(0.100000,-0.100000)"
fill="#eb8900" stroke="none">
<path d="M591 2293 c-42 -31 -87 -77 -94 -95 -5 -14 -15 -16 -56 -11 -45 5
-53 3 -90 -27 -23 -19 -41 -37 -41 -42 0 -5 -7 -16 -15 -24 -8 -9 -15 -26 -15
-39 0 -13 -5 -25 -12 -27 -6 -2 -13 -32 -16 -68 -4 -52 -1 -72 18 -109 13 -25
27 -54 31 -63 13 -26 11 -82 -3 -96 -6 -6 -14 -49 -16 -95 -3 -67 -1 -86 12
-99 9 -9 16 -20 16 -25 1 -15 87 -73 108 -73 38 0 31 -15 -25 -59 -35 -27 -53
-47 -49 -56 3 -8 -3 -19 -13 -25 -17 -9 -26 -43 -32 -120 -4 -48 16 -144 32
-158 11 -10 16 -24 13 -37 -5 -20 0 -28 57 -94 13 -16 18 -33 15 -50 -19 -101
-17 -141 5 -179 13 -20 29 -43 36 -50 7 -7 13 -18 13 -23 0 -8 60 -77 121
-138 54 -55 101 -91 118 -91 11 0 25 -9 31 -20 7 -13 21 -20 40 -20 16 0 32
-4 35 -10 3 -5 27 -10 53 -10 26 0 60 0 76 0 16 0 35 -8 42 -18 11 -14 30 -17
133 -17 83 0 124 4 133 13 6 6 30 12 53 12 22 0 53 7 69 15 15 8 35 15 42 15
8 0 17 7 20 15 4 9 19 15 40 15 22 0 37 6 40 15 4 8 12 15 19 15 7 0 18 7 25
15 7 8 21 15 31 15 10 0 22 6 26 14 4 8 27 24 51 36 23 12 42 26 42 30 0 4 11
11 25 14 14 4 25 11 25 16 0 6 9 10 19 10 11 0 26 7 35 15 8 8 25 15 38 15 13
0 36 7 52 15 15 8 48 15 73 15 29 0 53 7 69 19 13 11 32 17 42 14 28 -7 102
72 102 109 0 16 7 36 15 44 21 21 12 144 -12 161 -24 18 -32 16 -43 -12 -5
-14 -13 -25 -18 -25 -8 0 -32 -42 -32 -55 0 -13 49 -3 54 10 3 8 10 15 16 15
13 0 1 -82 -13 -91 -5 -4 -10 -20 -11 -35 -2 -37 -43 -78 -80 -80 -15 -1 -31
-6 -35 -12 -3 -5 -29 -11 -58 -14 -29 -3 -60 -11 -69 -19 -9 -7 -31 -12 -48
-11 -20 2 -38 -3 -45 -12 -8 -9 -22 -16 -33 -16 -12 0 -22 -9 -25 -20 -4 -14
-11 -19 -23 -15 -12 4 -30 -5 -51 -25 -19 -16 -41 -30 -50 -30 -9 0 -19 -6
-22 -13 -2 -7 -26 -23 -52 -37 -26 -14 -56 -31 -68 -37 -12 -7 -30 -13 -39
-13 -10 0 -18 -4 -18 -10 0 -5 -8 -10 -18 -10 -10 0 -26 -6 -37 -14 -11 -7
-47 -16 -79 -20 -33 -4 -64 -11 -70 -15 -10 -9 -236 -22 -236 -14 0 16 36 53
52 53 10 0 31 11 46 25 15 14 43 35 62 47 45 27 190 176 190 194 0 23 45 34
139 34 54 0 102 6 123 14 20 9 50 12 74 9 64 -8 133 36 209 132 59 76 133 145
153 145 27 0 38 -18 16 -27 -41 -16 -71 -72 -46 -87 13 -8 114 95 108 110 -3
8 -10 14 -16 14 -5 0 -10 6 -10 14 0 21 -20 30 -33 17 -6 -6 -21 -11 -34 -11
-13 0 -23 -4 -23 -9 0 -5 -9 -12 -19 -16 -22 -7 -87 -69 -146 -140 -55 -65
-100 -92 -171 -100 -32 -3 -101 -13 -153 -22 -87 -15 -95 -15 -106 1 -14 18
-35 22 -35 5 0 -5 -13 -15 -29 -20 -16 -6 -32 -17 -35 -25 -4 -10 -16 -12 -48
-8 -35 5 -53 1 -92 -20 -27 -14 -52 -26 -56 -26 -3 0 -13 16 -20 36 -8 20 -21
41 -30 48 -17 12 -80 91 -80 99 0 7 -66 69 -103 98 -32 24 -27 39 13 39 33 0
47 27 31 58 -7 13 -7 31 -1 51 5 18 7 38 4 45 -3 7 4 23 16 36 31 36 28 122
-6 164 -24 28 -34 32 -93 36 -62 5 -66 6 -66 30 0 24 2 25 51 22 56 -3 117 26
130 63 4 10 13 25 20 33 8 7 14 22 14 33 0 10 4 19 9 19 5 0 12 11 15 25 7 29
26 24 26 -6 0 -10 5 -19 10 -19 6 0 10 -11 10 -24 0 -13 7 -29 15 -36 8 -7 15
-18 15 -24 1 -34 123 -130 155 -122 39 10 36 -6 -8 -48 -23 -23 -53 -59 -67
-81 -13 -22 -30 -45 -38 -51 -18 -13 -12 -48 8 -52 9 -1 26 17 42 45 51 92
168 193 223 193 8 0 20 9 27 19 12 17 19 18 63 10 28 -6 69 -7 92 -4 32 5 44
2 50 -10 6 -9 29 -18 61 -22 42 -5 52 -9 52 -24 0 -18 -169 -199 -186 -199
-16 -1 -46 -51 -40 -66 5 -12 11 -11 36 7 16 13 30 26 30 31 0 4 7 8 15 8 14
0 125 107 125 121 0 4 16 24 35 45 19 22 35 42 35 47 0 4 9 7 19 7 11 0 23 4
26 10 3 5 15 10 25 10 26 0 100 72 100 97 0 11 9 28 21 39 18 16 36 19 120 18
95 -1 101 -2 137 -31 60 -49 56 -77 -21 -157 -36 -36 -72 -66 -81 -66 -9 0
-19 -6 -22 -14 -7 -18 -99 -81 -152 -106 -13 -5 -30 -17 -38 -25 -9 -8 -24
-15 -35 -15 -10 0 -19 -4 -19 -9 0 -5 -11 -12 -25 -15 -14 -4 -25 -11 -25 -16
0 -6 -13 -10 -29 -10 -16 0 -36 -7 -45 -15 -8 -8 -24 -15 -35 -15 -11 0 -27
-8 -37 -17 -10 -11 -34 -17 -64 -18 -30 -1 -54 -7 -65 -18 -20 -21 -35 -14
-35 17 0 52 -79 156 -119 156 -11 0 -23 5 -26 10 -8 13 -112 13 -120 0 -3 -5
-17 -10 -31 -10 -13 0 -32 -9 -41 -20 -10 -11 -22 -20 -27 -20 -5 0 -26 -8
-47 -17 -29 -14 -38 -25 -43 -52 -3 -19 -1 -42 5 -52 6 -13 6 -19 -1 -19 -5 0
-10 -11 -10 -25 0 -25 2 -26 57 -23 68 4 79 20 22 34 -55 12 -54 28 4 32 26 2
47 7 47 11 0 5 9 11 20 14 21 5 27 31 10 42 -5 3 -26 -1 -46 -10 -20 -8 -42
-15 -49 -15 -23 0 7 50 30 50 11 0 29 7 39 15 11 8 29 15 40 15 12 0 30 7 41
16 36 27 148 -19 175 -72 8 -16 18 -31 22 -34 16 -13 20 -61 5 -78 -8 -9 -18
-27 -21 -39 -4 -13 -11 -23 -15 -23 -5 0 -29 -16 -54 -35 -25 -19 -55 -35 -66
-35 -12 0 -21 -7 -21 -16 0 -12 -9 -14 -37 -12 -45 4 -50 22 -8 26 30 3 55 25
55 49 0 18 -27 16 -34 -2 -3 -8 -15 -15 -26 -15 -41 0 -89 -38 -90 -70 0 -22
128 -26 136 -5 4 8 17 15 30 15 14 0 27 7 30 15 4 8 15 15 25 15 10 0 19 -7
19 -15 0 -8 3 -15 6 -15 9 0 54 49 54 58 1 14 46 58 93 90 36 24 59 32 92 32
24 0 47 5 50 10 3 6 14 10 24 10 10 0 28 9 41 20 12 11 26 17 31 14 13 -7 96
33 103 51 3 8 14 15 26 15 11 0 42 14 68 30 27 17 52 30 56 30 4 0 14 6 21 13
22 19 37 30 77 57 21 14 38 28 38 33 0 4 5 7 10 7 6 0 30 20 53 44 108 111
116 134 67 196 -47 59 -100 82 -179 78 l-66 -3 3 52 c4 50 2 55 -37 93 -22 22
-47 40 -56 40 -8 0 -15 5 -15 10 0 6 -13 10 -30 10 -19 0 -33 7 -40 20 -6 11
-17 20 -24 20 -10 0 -12 13 -8 51 4 43 1 53 -19 72 -34 32 -69 49 -114 56
l-40 6 -3 65 c-3 56 -7 68 -29 88 -22 18 -38 22 -100 22 -76 0 -96 10 -152 73
-20 23 -132 25 -151 2 -7 -8 -20 -15 -29 -15 -9 0 -31 -14 -49 -31 -22 -21
-38 -28 -52 -24 -10 3 -17 12 -14 19 6 16 -51 66 -75 66 -10 0 -33 18 -51 41
-52 60 -95 84 -133 72 -33 -9 -69 -2 -119 23 -37 20 -109 18 -137 -3z m129
-42 c0 -5 14 -13 32 -16 18 -4 40 -12 50 -18 13 -9 21 -7 36 6 27 25 34 22 85
-30 62 -65 89 -85 109 -80 9 3 26 -6 37 -19 l20 -23 -21 -7 c-32 -10 -58 -37
-58 -60 0 -12 -7 -24 -15 -28 -23 -8 -20 -82 5 -113 11 -14 17 -29 14 -34 -8
-14 -34 -11 -34 4 0 19 -101 117 -120 117 -10 0 -20 6 -23 14 -15 38 -218 34
-253 -5 -9 -10 -23 -19 -31 -19 -8 0 -28 -13 -46 -30 -18 -16 -35 -30 -39 -30
-5 0 -8 -8 -8 -19 0 -10 -7 -32 -15 -47 -8 -16 -15 -38 -15 -49 0 -11 7 -33
15 -49 8 -15 15 -37 15 -48 0 -23 33 -80 67 -118 13 -14 23 -28 23 -32 0 -14
86 -88 103 -88 9 0 17 -7 17 -15 0 -14 -14 -15 -97 -10 -54 4 -99 11 -101 15
-2 5 -20 12 -40 16 -23 4 -48 20 -69 43 -28 31 -33 43 -33 86 0 28 -3 59 -6
71 -3 13 1 28 12 39 21 21 26 116 7 122 -7 3 -13 15 -13 27 0 12 -7 31 -15 42
-20 26 -20 128 1 159 9 13 13 28 11 32 -10 16 61 83 93 90 40 7 50 -6 50 -69
0 -39 4 -48 21 -53 12 -4 26 -2 32 4 16 16 17 82 0 88 -26 10 -12 45 37 93 47
48 51 50 105 50 30 0 55 -4 55 -9z m707 -187 l48 -45 78 4 77 5 0 -63 c0 -57
3 -66 31 -94 24 -24 39 -31 70 -31 21 0 39 -4 39 -8 0 -5 12 -14 26 -21 24
-11 26 -15 20 -55 -6 -41 -5 -45 35 -85 25 -25 48 -40 58 -37 9 2 36 -10 61
-28 38 -28 46 -40 55 -81 7 -36 6 -50 -3 -53 -7 -2 -19 -11 -27 -19 -14 -13
-22 -8 -72 46 -53 57 -60 61 -100 61 -66 0 -103 -31 -103 -86 0 -38 4 -44 32
-58 17 -9 56 -16 90 -16 43 0 60 -4 64 -15 4 -8 12 -15 20 -15 8 0 14 -7 14
-15 0 -8 -6 -15 -14 -15 -8 0 -16 -7 -20 -15 -3 -8 -10 -15 -16 -15 -5 0 -10
7 -10 15 0 8 7 15 15 15 8 0 15 7 15 15 0 27 -30 16 -79 -30 -26 -25 -51 -45
-55 -45 -3 0 -15 9 -26 20 -12 12 -33 20 -53 20 -18 0 -39 6 -45 12 -9 9 -42
12 -102 11 -77 -2 -90 0 -90 14 0 15 12 31 53 71 9 9 17 28 17 42 0 14 7 34
15 44 20 26 20 142 0 180 -8 15 -15 35 -15 43 0 20 -95 108 -145 134 -33 18
-49 20 -102 14 -58 -6 -66 -5 -94 19 -17 14 -35 26 -41 26 -14 0 -78 -66 -78
-80 0 -5 -7 -10 -15 -10 -10 0 -15 10 -15 29 0 16 6 31 15 35 8 3 15 15 15 26
0 11 -7 20 -15 20 -8 0 -15 -9 -15 -20 0 -11 -7 -20 -15 -20 -19 0 -19 39 0
64 8 11 15 28 15 39 0 32 25 13 28 -22 4 -39 25 -36 32 5 4 21 12 30 29 32 13
2 35 15 50 28 14 13 33 24 42 24 9 0 22 7 29 15 8 10 31 15 70 15 55 0 61 -2
107 -46z m-592 -150 c6 -10 17 -14 23 -11 13 9 112 -92 112 -115 0 -9 10 -26
22 -37 19 -19 21 -27 15 -102 -7 -90 -45 -184 -98 -241 -25 -29 -33 -31 -83
-30 -61 1 -89 15 -149 75 -22 20 -47 42 -58 48 -10 5 -19 14 -19 20 0 6 -14
26 -32 45 -17 18 -33 40 -34 48 -1 9 -9 23 -18 32 -9 8 -16 26 -16 39 0 13 -4
27 -10 30 -16 10 -11 84 8 118 23 41 49 67 66 67 8 0 21 6 29 14 19 20 58 25
151 20 59 -3 82 -8 91 -20z m351 -53 c5 -6 47 -12 93 -15 62 -4 87 -10 93 -21
5 -8 16 -15 24 -15 21 0 77 -58 97 -99 19 -38 24 -201 7 -201 -5 0 -12 -15
-16 -34 -3 -19 -12 -37 -20 -40 -8 -3 -14 -11 -14 -18 0 -23 -84 -95 -118
-103 -58 -12 -117 3 -156 40 -20 18 -36 38 -36 44 0 5 -6 16 -13 23 -26 27
-47 68 -47 92 0 14 -7 29 -16 34 -12 6 -17 34 -21 120 -5 98 -4 112 11 118 9
3 16 13 16 22 0 39 89 79 116 53z m702 -371 c16 -16 35 -30 41 -30 7 0 11 -8
9 -17 -2 -10 -9 -18 -16 -17 -6 1 -42 2 -79 3 -62 1 -69 3 -79 26 -30 64 70
93 124 35z m-1304 -162 c-1 -20 -9 -44 -18 -53 -44 -45 13 -136 93 -150 22 -4
45 -13 52 -21 6 -8 20 -14 31 -14 10 0 21 -7 24 -15 4 -8 14 -15 23 -15 14 -1
14 -2 -1 -11 -22 -12 -33 -71 -19 -98 11 -19 9 -21 -18 -21 -16 0 -33 5 -36
10 -3 6 -28 10 -55 10 -27 0 -52 -4 -55 -10 -3 -5 -15 -10 -25 -10 -24 0 -106
-55 -114 -76 -6 -15 -8 -15 -26 1 -11 10 -20 23 -20 30 0 7 -9 22 -20 35 -11
13 -20 33 -20 45 0 11 -5 26 -12 33 -7 7 -12 50 -12 114 -1 123 21 182 79 214
19 10 35 22 35 26 0 7 68 16 100 14 11 -1 15 -12 14 -38z m137 32 c15 -8 19
-22 19 -60 l0 -50 68 0 c87 0 106 -17 105 -91 0 -28 -6 -56 -12 -62 -6 -6 -11
-25 -11 -43 0 -17 -7 -37 -15 -44 -19 -16 -19 -44 0 -60 8 -7 12 -16 9 -21 -9
-16 -33 -10 -56 14 -19 18 -23 33 -23 90 l0 69 -40 21 c-22 12 -44 28 -51 36
-8 10 -21 12 -47 7 -29 -5 -37 -4 -37 8 0 8 -9 17 -19 21 -26 8 -25 65 1 83
11 8 18 25 18 46 0 18 3 36 7 39 10 11 62 8 84 -3z m109 -456 c0 -9 -7 -14
-17 -12 -25 5 -28 28 -4 28 12 0 21 -6 21 -16z m-125 -3 c3 -5 19 -12 36 -16
17 -4 40 -12 53 -18 22 -12 105 -86 135 -120 9 -10 26 -31 39 -45 67 -77 92
-110 92 -122 0 -18 40 -60 57 -60 8 0 16 7 19 15 4 8 15 15 25 15 10 0 24 9
31 20 9 14 24 20 50 20 20 0 39 -4 42 -9 5 -8 -120 -131 -133 -131 -3 0 -26
-19 -51 -43 -25 -23 -68 -53 -95 -66 -28 -14 -53 -29 -57 -35 -7 -11 -78 22
-78 36 0 5 -4 8 -9 8 -14 0 -199 190 -211 216 -7 16 -51 72 -82 105 -16 17
-28 35 -28 42 0 7 -15 28 -34 47 -20 21 -31 41 -28 49 9 23 35 51 48 51 11 0
65 23 94 40 20 12 77 12 85 1z m-217 -180 c51 -82 113 -163 204 -264 55 -61
49 -55 113 -108 58 -48 64 -59 37 -59 -11 0 -22 6 -25 14 -3 7 -18 17 -33 20
-45 12 -128 72 -193 141 -34 36 -61 70 -61 76 0 5 -10 20 -22 32 -39 38 -68
103 -68 151 0 26 4 46 9 46 5 0 23 -22 39 -49z"/>
<path d="M2570 1206 c0 -212 3 -317 11 -321 6 -4 26 -4 46 0 l35 6 -3 137 -4
137 160 0 160 0 -1 -35 c0 -19 -3 -80 -5 -135 l-4 -99 33 -10 c57 -16 57 -14
54 327 l-3 308 -37 -3 -37 -3 -1 -128 c0 -71 -5 -132 -10 -137 -7 -7 -69 -9
-160 -8 l-149 3 0 135 0 135 -42 3 -43 3 0 -315z"/>
<path d="M6557 1498 c-6 -26 -24 -78 -43 -123 -7 -16 -20 -50 -29 -75 -9 -25
-23 -58 -31 -73 -8 -16 -14 -36 -14 -46 0 -9 -7 -26 -15 -37 -8 -10 -15 -27
-15 -36 0 -9 -7 -29 -15 -45 -8 -15 -22 -46 -30 -68 -9 -22 -23 -53 -30 -68
-14 -26 -13 -28 12 -38 45 -17 68 -4 82 43 8 24 21 63 31 88 l19 45 123 -4
c68 -1 125 -5 127 -7 9 -8 33 -80 38 -111 3 -18 10 -37 17 -42 18 -15 60 -22
76 -12 12 8 11 18 -8 68 -13 32 -29 71 -37 86 -8 16 -15 36 -15 46 0 9 -7 26
-15 37 -8 10 -15 28 -15 39 0 11 -7 29 -15 39 -8 11 -15 29 -15 40 0 12 -7 30
-15 40 -8 11 -15 28 -15 38 0 17 -20 68 -46 120 -8 14 -14 33 -14 42 0 19 -30
36 -63 36 -17 0 -26 -7 -30 -22z m78 -178 c18 -57 37 -106 60 -152 8 -15 10
-30 6 -32 -12 -8 -191 -9 -199 -2 -3 4 1 21 11 37 9 17 17 38 17 47 0 9 7 26
15 36 8 11 15 28 15 38 0 27 40 102 49 92 5 -5 16 -34 26 -64z"/>
<path d="M9430 1511 c0 -6 -1 -147 -1 -313 0 -329 0 -328 57 -314 l24 6 -2
138 -3 137 160 0 160 0 1 -133 c1 -81 6 -138 12 -144 18 -18 78 4 74 28 -9 63
-12 339 -5 451 5 73 7 137 5 143 -2 5 -21 10 -43 10 -30 0 -39 -4 -40 -17 0
-10 0 -73 1 -141 l1 -123 -163 3 -163 3 0 135 0 135 -37 3 c-22 2 -38 -1 -38
-7z"/>
<path d="M10986 1503 c-7 -23 2 -516 10 -555 3 -16 11 -28 17 -28 6 0 18 -6
26 -14 9 -8 36 -16 61 -18 l45 -3 0 35 c0 27 -5 36 -20 38 -10 3 -30 11 -43
20 l-23 15 2 261 2 261 -36 3 c-27 2 -37 -1 -41 -15z"/>
<path d="M11540 1508 c-4 -181 3 -615 10 -622 6 -6 22 -5 42 0 37 11 35 -2 23
177 -4 48 -1 93 6 118 27 89 144 132 200 73 24 -25 24 -28 22 -194 -3 -166 -3
-168 19 -173 12 -4 33 -4 45 -1 23 6 23 8 23 173 0 181 -9 219 -62 260 -35 28
-176 32 -202 6 -8 -8 -27 -15 -41 -15 -26 0 -27 1 -19 43 5 23 9 69 9 102 l0
60 -37 3 c-26 2 -38 -1 -38 -10z"/>
<path d="M11280 1472 c-34 -5 -39 -17 -33 -79 l6 -53 -37 0 c-63 0 -61 -62 3
-68 l31 -3 0 -138 c0 -76 5 -152 11 -169 15 -44 65 -72 127 -72 56 0 67 9 58
46 -5 17 -13 24 -32 24 -14 0 -38 7 -55 15 l-30 16 3 142 3 142 52 -3 c49 -4
53 -2 59 23 9 36 -2 43 -65 47 l-55 3 3 61 c2 66 -3 73 -49 66z"/>
<path d="M4808 1340 c-88 -7 -130 -41 -147 -119 -26 -124 -9 -240 46 -294 29
-30 43 -36 98 -42 121 -13 199 11 235 73 29 48 29 255 1 308 -36 67 -92 85
-233 74z m134 -83 c36 -30 48 -66 48 -148 0 -115 -39 -159 -139 -159 -42 0
-56 5 -86 31 l-35 31 0 103 0 103 35 31 c31 27 43 31 93 31 44 -1 63 -6 84
-23z"/>
<path d="M7953 1342 c-23 -2 -47 -10 -53 -18 -7 -7 -18 -14 -25 -14 -7 0 -23
-19 -34 -43 -18 -36 -21 -62 -21 -160 0 -131 13 -166 72 -202 46 -27 199 -28
249 -1 44 24 68 56 71 98 3 31 1 33 -29 36 -27 3 -35 -1 -45 -23 -18 -40 -67
-65 -129 -65 -58 1 -85 16 -106 60 -41 89 -39 90 147 90 88 0 161 3 163 8 2 4
2 40 -1 79 -4 69 -6 75 -43 112 -37 37 -44 40 -107 43 -37 2 -86 2 -109 0z
m162 -99 c20 -20 35 -46 35 -60 0 -23 0 -23 -130 -23 l-130 0 0 25 c0 15 14
38 35 60 33 32 40 35 95 35 55 0 62 -3 95 -37z"/>
<path d="M3208 1310 c-38 -31 -53 -73 -33 -90 19 -16 66 0 97 32 21 23 34 28
73 28 78 0 124 -38 125 -104 0 -33 -2 -37 -17 -30 -10 5 -62 10 -116 12 -84 3
-102 1 -129 -17 -63 -39 -70 -180 -11 -227 52 -41 196 -41 241 -1 l23 21 6
-22 c4 -17 13 -22 37 -22 l32 0 -3 193 -3 192 -37 33 c-36 32 -37 32 -142 32
-103 0 -108 -1 -143 -30z m233 -227 c39 -23 37 -41 -9 -91 -37 -40 -42 -42
-94 -42 -41 0 -62 5 -82 21 -33 26 -35 73 -4 106 18 20 31 23 91 23 47 0 78
-5 98 -17z"/>
<path d="M3648 1119 c-2 -159 0 -223 9 -230 7 -6 24 -7 44 -1 l34 8 -5 80
c-14 230 4 274 120 293 31 6 35 10 38 39 3 32 3 32 -40 32 -25 0 -53 -7 -64
-15 -25 -19 -60 -19 -68 0 -3 9 -18 15 -35 15 l-30 0 -3 -221z"/>
<path d="M3948 1123 c-3 -244 -1 -253 54 -236 24 7 32 15 31 29 -19 203 -6
305 44 344 38 30 92 27 121 -7 22 -27 23 -33 21 -191 -1 -92 2 -167 8 -173 5
-5 24 -6 41 -3 l32 7 -4 136 c-7 194 17 251 104 251 31 0 44 -6 65 -31 26 -32
26 -32 24 -189 -1 -87 1 -163 5 -169 9 -15 38 -14 58 2 14 10 15 35 8 200 l-7
188 -28 29 c-28 29 -32 30 -114 30 -78 0 -88 -3 -110 -25 -29 -31 -38 -31 -63
0 -17 22 -27 25 -89 25 -46 0 -78 -5 -93 -15 -21 -14 -24 -14 -36 0 -7 8 -25
15 -41 15 l-28 0 -3 -217z"/>
<path d="M5169 1338 c0 -2 -2 -93 -3 -203 -2 -110 -7 -208 -11 -217 -9 -22 39
-44 69 -31 18 9 19 19 17 154 -1 127 1 147 18 173 27 41 70 66 113 66 54 0 68
-9 88 -55 15 -36 17 -63 13 -187 -4 -141 -3 -147 16 -153 12 -3 30 -3 41 0 19
6 20 13 16 123 -2 64 -5 149 -5 189 -1 69 -3 74 -36 108 -35 35 -37 35 -120
35 -74 0 -87 -3 -106 -22 l-21 -23 -15 23 c-10 14 -26 22 -44 22 -16 0 -29 -1
-30 -2z"/>
<path d="M5659 1333 c-1 -5 -1 -87 1 -182 2 -158 4 -178 23 -203 28 -38 76
-58 137 -58 49 0 110 23 110 42 0 17 30 7 31 -9 4 -64 -3 -89 -32 -115 -24
-23 -38 -28 -83 -28 -47 0 -59 4 -84 30 -23 22 -40 30 -66 30 -31 0 -36 -3
-36 -22 1 -26 32 -66 72 -91 37 -23 158 -23 214 0 24 10 52 32 65 51 21 31 23
46 26 180 2 81 5 200 6 265 l3 117 -43 0 -43 0 0 -145 c0 -125 -3 -149 -19
-176 -22 -37 -67 -59 -118 -59 -77 0 -95 41 -93 209 3 182 5 171 -35 171 -19
0 -36 -3 -36 -7z"/>
<path d="M6958 1304 c-41 -41 -58 -94 -58 -183 0 -189 76 -260 253 -236 83 12
137 68 137 144 0 24 -5 32 -24 37 -32 8 -42 1 -49 -34 -11 -56 -38 -75 -110
-80 -63 -4 -68 -3 -97 26 -29 30 -30 32 -30 132 l0 102 34 34 c28 28 41 34 78
34 55 0 88 -17 113 -58 16 -26 26 -31 50 -29 28 2 30 5 29 40 -1 29 -10 47
-35 73 l-33 34 -111 0 -112 0 -35 -36z"/>
<path d="M7407 1304 c-40 -41 -57 -97 -57 -194 0 -102 18 -157 64 -193 39 -31
43 -32 137 -32 93 0 99 1 135 30 26 22 41 45 51 80 14 45 13 50 -4 62 -29 22
-56 12 -65 -23 -4 -17 -19 -43 -33 -59 -25 -25 -30 -27 -92 -23 -57 4 -69 8
-89 32 -22 25 -24 36 -24 131 l0 103 35 31 c30 26 44 31 87 31 45 0 54 -4 84
-36 19 -19 34 -40 34 -45 0 -5 16 -9 36 -9 l37 0 -6 43 c-4 32 -14 49 -43 75
-37 32 -38 32 -144 32 l-107 0 -36 -36z"/>
<path d="M8335 1305 c-31 -32 -35 -41 -35 -90 0 -50 2 -56 36 -82 35 -26 143
-61 194 -62 36 -1 70 -28 70 -56 0 -40 -44 -65 -113 -65 -59 0 -61 1 -101 45
-26 27 -51 45 -64 45 -19 0 -22 -5 -22 -43 0 -87 85 -127 239 -111 91 9 122
34 129 102 6 68 -2 96 -35 117 -30 20 -153 55 -195 55 -15 0 -36 9 -47 21 -16
17 -18 26 -9 50 13 38 35 49 100 49 49 0 56 -3 91 -41 48 -50 80 -51 85 -2 2
25 -4 40 -29 68 l-32 35 -113 0 -113 0 -36 -35z"/>
<path d="M8787 1305 c-34 -33 -37 -41 -37 -90 0 -50 3 -56 34 -81 32 -26 144
-62 196 -63 63 -2 90 -59 47 -99 -19 -18 -35 -22 -86 -22 -65 0 -72 4 -124 69
-11 14 -26 21 -40 19 -18 -2 -23 -10 -25 -43 -3 -36 1 -45 35 -75 l38 -35 111
2 c100 1 115 3 143 24 43 32 58 84 41 144 -7 25 -17 45 -23 45 -6 0 -18 6 -26
13 -17 14 -154 47 -196 47 -44 0 -60 65 -25 100 15 15 33 20 75 20 52 0 59 -3
96 -41 51 -52 83 -51 87 1 2 30 -3 41 -32 68 -35 32 -36 32 -144 32 l-109 0
-36 -35z"/>
<path d="M10074 1312 c-58 -51 -64 -70 -64 -201 0 -136 11 -166 71 -204 29
-18 49 -21 136 -20 81 0 106 4 125 19 37 28 56 57 60 95 3 32 1 34 -29 37 -27
3 -35 -1 -45 -23 -17 -38 -68 -65 -123 -65 -79 0 -125 43 -125 117 l0 33 159
0 c102 0 162 4 166 11 4 5 4 41 0 79 -6 64 -10 73 -47 110 l-40 40 -107 0
c-101 -1 -107 -2 -137 -28z m199 -43 c32 -17 66 -61 67 -86 0 -23 -2 -23 -129
-23 -73 0 -132 4 -136 10 -8 12 21 59 54 87 29 26 106 32 144 12z"/>
<path d="M10556 1321 c-54 -36 -73 -94 -33 -105 33 -9 33 -9 74 29 31 28 46
35 80 35 65 0 108 -25 122 -71 7 -22 10 -43 7 -48 -3 -4 -50 -6 -105 -3 -120
6 -139 1 -180 -40 -28 -29 -31 -38 -31 -94 0 -59 2 -65 35 -97 29 -28 46 -36
93 -41 67 -8 120 1 145 22 15 14 19 13 35 -1 10 -10 32 -17 49 -17 l30 0 1
158 c1 181 -7 223 -51 263 -30 28 -35 29 -137 29 -87 0 -110 -3 -134 -19z
m213 -238 c41 -24 39 -47 -8 -94 -35 -35 -44 -39 -89 -39 -91 0 -138 74 -82
130 27 27 134 28 179 3z"/>
<path d="M2145 1000 c-3 -11 -11 -20 -16 -20 -5 0 -9 -11 -9 -25 0 -31 23 -33
38 -2 l11 22 7 -22 c10 -37 34 -28 34 12 0 24 -6 37 -19 45 -28 15 -39 13 -46
-10z"/>
<path d="M1067 803 c-16 -15 -6 -33 18 -33 28 0 34 24 9 34 -19 7 -19 7 -27
-1z"/>
<path d="M1180 785 c0 -10 11 -15 35 -15 24 0 35 5 35 15 0 10 -11 15 -35 15
-24 0 -35 -5 -35 -15z"/>
<path d="M1010 760 c0 -36 74 -63 110 -40 12 7 8 11 -17 16 -18 3 -38 13 -44
20 -13 16 -49 19 -49 4z"/>
</g>
</svg>
